<?xml version="1.0" encoding="UTF-8"?>
<!DOCTYPE svg PUBLIC "-//W3C//DTD SVG 1.1//EN" "http://www.w3.org/Graphics/SVG/1.1/DTD/svg11.dtd">
<!-- Creator: CorelDRAW 2019 (64-Bit) -->
<svg xmlns="http://www.w3.org/2000/svg" xml:space="preserve" width="50px" height="33px" version="1.1" style="shape-rendering:geometricPrecision; text-rendering:geometricPrecision; image-rendering:optimizeQuality; fill-rule:evenodd; clip-rule:evenodd"
viewBox="0 0 50 32.89"
 xmlns:xlink="http://www.w3.org/1999/xlink"
 xmlns:xodm="http://www.corel.com/coreldraw/odm/2003">
 <defs>
  <style type="text/css">
   <![CDATA[
    .fil0 {fill:none}
    .fil1 {fill:#EBECEC}
   ]]>
  </style>
 </defs>
 <g id="Layer_x0020_1">
  <metadata id="CorelCorpID_0Corel-Layer"/>
  <rect class="fil0" width="50" height="32.89"/>
  <g id="_2626422747344">
   <path class="fil1" d="M32.04 12.75c0,0.01 0.43,0.92 0.6,1.58 0.63,2.36 0.25,4.82 -1.21,6.76l-0.83 0.98c-0.08,0.07 -0.12,0.09 -0.2,0.17 -0.07,0.07 -0.11,0.12 -0.19,0.18 -0.37,0.29 -0.57,0.49 -1.03,0.78l-0.46 0.28c-0.17,0.09 -0.33,0.16 -0.5,0.24l0.36 0.75c0.13,0.25 0.24,0.49 0.36,0.74l1.09 2.23c0.07,0.14 0.12,0.24 0.19,0.37l0.9 1.89c0.15,-0.02 1.6,-0.76 1.74,-0.79l-0.44 -1.64c-0.14,-0.58 -0.3,-1.11 -0.43,-1.68l0.91 -1c0.06,-0.06 0.11,-0.1 0.16,-0.16l0.78 -0.86c0.19,-0.2 0.76,-0.89 0.93,-0.99 0.12,-0.06 0.54,-0.29 0.68,-0.27 0.09,0.01 0.19,0.03 0.27,0.05l2.24 0.34c0.18,0.02 0.41,0.08 0.58,0.08l0.26 -0.74c0.09,-0.26 0.17,-0.49 0.26,-0.75l0.51 -1.49 -0.57 -0.3c-0.08,-0.05 -0.13,-0.07 -0.21,-0.11l-1.55 -0.84c-0.08,-0.04 -0.1,-0.07 -0.18,-0.11 -0.37,-0.19 -0.24,-0.09 -0.45,-0.47 -0.2,-0.37 -0.21,-0.39 -0.23,-0.96l-0.13 -1.68c-0.04,-0.45 -0.13,-1.29 -0.13,-1.69 0,-0.07 0.55,-0.47 0.64,-0.54l1.37 -1.05c0.11,-0.1 0.62,-0.46 0.67,-0.54 -0.03,-0.13 -0.76,-1.58 -0.79,-1.71 -0.13,0.01 -0.61,0.28 -0.75,0.35l-5.22 2.6z"/>
   <path class="fil1" d="M11.14 11.54c0.06,0.07 0.24,0.19 0.32,0.26l2.4 1.84c-0.06,0.23 -0.1,1.36 -0.15,1.65 -0.02,0.19 -0.03,0.38 -0.04,0.57 -0.01,0.16 -0.05,0.38 -0.05,0.55 -0.01,0.19 -0.03,0.39 -0.05,0.55 -0.05,0.49 0.05,0.56 -0.21,1.01 -0.05,0.1 -0.17,0.33 -0.23,0.38 -0.05,0.03 -0.12,0.06 -0.18,0.1 -0.08,0.04 -0.12,0.06 -0.21,0.11 -0.08,0.04 -0.11,0.06 -0.19,0.1l-2.17 1.17 0.51 1.49c0.09,0.25 0.17,0.49 0.26,0.74l0.26 0.74c0.17,0 2.5,-0.36 2.8,-0.41 0.11,-0.02 0.15,-0.03 0.27,-0.04 0.13,-0.02 0.13,-0.01 0.25,0.05 0.39,0.2 0.47,0.13 0.77,0.52 0.05,0.07 0.09,0.11 0.15,0.17l0.3 0.32c0.3,0.3 0.76,0.87 1.08,1.19l0.93 1.02 -0.2 0.82c-0.08,0.28 -0.15,0.55 -0.23,0.83 -0.07,0.28 -0.14,0.55 -0.21,0.84 -0.04,0.15 -0.07,0.27 -0.11,0.41 -0.04,0.13 -0.09,0.31 -0.09,0.44 0.1,0.01 0.71,0.32 0.85,0.39l0.63 0.29c0.08,0.04 0.13,0.08 0.23,0.08 0.03,-0.14 0.28,-0.58 0.36,-0.74 0.61,-1.22 1.2,-2.51 1.81,-3.72l0.72 -1.51c-0.77,-0.41 -0.61,-0.29 -1.37,-0.81 -0.26,-0.17 -0.41,-0.33 -0.62,-0.49 -0.17,-0.13 -0.58,-0.56 -0.74,-0.73 -0.04,-0.05 -0.04,-0.06 -0.08,-0.11l-0.41 -0.51c-0.74,-0.98 -1.49,-2.66 -1.49,-4.38 0,-1.47 0.2,-2.29 0.72,-3.56 0.06,-0.13 0.15,-0.26 0.18,-0.38 -0.48,-0.26 -0.99,-0.5 -1.48,-0.74l-3.72 -1.85c-0.15,-0.08 -0.64,-0.35 -0.78,-0.36 -0.04,0.19 -0.76,1.6 -0.79,1.71z"/>
   <path class="fil1" d="M18.72 6.86c-0.06,0 -1.29,-0.82 -1.44,-0.93 -0.24,-0.15 -0.48,-0.3 -0.72,-0.46l-0.73 -0.48c-0.18,0.27 -1.15,1.06 -1.34,1.34l2.63 2.62c0.11,0.11 0.2,0.17 0.31,0.28 0.3,0.31 1.54,1.59 1.79,1.76 0.12,-0.08 0.55,-0.53 0.82,-0.74 0.58,-0.44 0.69,-0.48 1.26,-0.82 0.24,-0.15 0.8,-0.39 1.07,-0.48 0.14,-0.05 0.26,-0.09 0.4,-0.13 0.46,-0.14 1.29,-0.31 1.77,-0.31 0.2,0.01 0.31,-0.03 0.5,-0.02l0.47 0.02c0.35,0.01 1.05,0.15 1.36,0.22 1.38,0.35 2.33,0.91 3.41,1.78l0.55 0.5c0.13,-0.08 1.62,-1.61 1.9,-1.89l0.11 -0.1c0.02,-0.02 0.02,-0.02 0.04,-0.03 0.21,-0.2 2.57,-2.53 2.66,-2.66l-1.32 -1.34c-0.14,0.04 -2.46,1.66 -2.77,1.83 -0.12,0.07 -0.2,-0.01 -0.32,-0.06l-2.9 -1.25c-0.15,-0.07 -0.51,-0.2 -0.62,-0.31 -0.48,-0.48 -0.44,-0.34 -0.52,-0.84l-0.43 -2.36c-0.02,-0.13 -0.07,-0.28 -0.07,-0.41l-3.16 0c-0.07,0.34 -0.45,3.02 -0.56,3.15 -0.04,0.06 -0.09,0.11 -0.14,0.17l-0.31 0.33 -3.7 1.62z"/>
   <path class="fil1" d="M9.12 16.46c0,-2.08 0.49,-4.72 1.42,-6.58l0.67 -1.31c0.23,-0.42 0.49,-0.8 0.76,-1.2 0.36,-0.54 0.8,-1.02 1.2,-1.52 0.2,-0.25 0.61,-0.65 0.85,-0.88 0.28,-0.29 1.01,-0.9 1.33,-1.14 0.87,-0.66 1.8,-1.21 2.78,-1.7 0.12,-0.06 0.22,-0.1 0.34,-0.16 0.44,-0.22 0.95,-0.4 1.41,-0.56 0.49,-0.16 1,-0.32 1.54,-0.44 3.16,-0.69 6.42,-0.49 9.41,0.7l1.36 0.62c0.65,0.32 1.26,0.71 1.86,1.11 0.11,0.07 0.18,0.12 0.27,0.2 0.34,0.24 0.82,0.59 1.12,0.88l1.37 1.34c0.05,0.06 0.06,0.09 0.12,0.15 0.24,0.24 0.45,0.53 0.67,0.8 0.07,0.1 0.14,0.19 0.21,0.29 0.48,0.7 0.94,1.38 1.33,2.15 0.34,0.68 0.64,1.35 0.88,2.08 1.2,3.58 1.15,7.47 -0.24,10.99 -0.09,0.22 -0.19,0.48 -0.3,0.7 -0.06,0.11 -0.1,0.22 -0.15,0.32l-0.52 0.99c-0.29,0.52 -0.61,1.01 -0.96,1.48 -0.07,0.1 -0.13,0.19 -0.21,0.29 -0.49,0.66 -1.06,1.26 -1.63,1.84 -0.41,0.41 -1.19,1.06 -1.62,1.36l-1.02 0.69c-0.48,0.29 -0.96,0.55 -1.46,0.8l-1.02 0.45c-0.73,0.29 -1.48,0.53 -2.27,0.71 -3.09,0.73 -6.56,0.48 -9.49,-0.7l-1.02 -0.45c-0.55,-0.28 -1.08,-0.55 -1.59,-0.88 -0.21,-0.14 -0.39,-0.26 -0.6,-0.4 -0.78,-0.52 -1.5,-1.16 -2.16,-1.82 -0.09,-0.08 -0.16,-0.15 -0.24,-0.23 -0.28,-0.29 -0.89,-1.02 -1.14,-1.34 -0.07,-0.09 -0.14,-0.19 -0.21,-0.29 -0.07,-0.1 -0.14,-0.18 -0.21,-0.29 -0.26,-0.39 -0.54,-0.79 -0.76,-1.21l-0.68 -1.32c-0.42,-0.84 -0.8,-2.05 -1,-2.95 -0.23,-1.1 -0.4,-2.24 -0.4,-3.57zm15.46 -16.42l0.75 0c0.67,0.01 1.34,0.07 1.99,0.16 1.91,0.27 3.78,0.86 5.45,1.8l0.47 0.26c0.63,0.35 1.21,0.77 1.78,1.19l0.55 0.45c0.06,0.06 0.09,0.06 0.15,0.12 0.37,0.35 1.09,0.97 1.37,1.34l0.36 0.4c0.66,0.78 1.24,1.6 1.76,2.48 0.32,0.53 0.58,1.07 0.83,1.64 0.59,1.35 1,2.78 1.21,4.27 0.14,0.99 0.16,1.74 0.16,2.74l0 0.04 0 0.01c0,0.19 -0.02,0.31 -0.03,0.47 -0.05,1.75 -0.56,3.69 -1.2,5.29 -0.05,0.12 -0.1,0.22 -0.16,0.35 -0.18,0.45 -0.42,0.89 -0.65,1.32 -0.06,0.12 -0.12,0.21 -0.18,0.32 -0.35,0.63 -0.77,1.21 -1.2,1.78l-0.68 0.82c-0.35,0.46 -1.15,1.22 -1.62,1.61 -0.5,0.42 -1.01,0.82 -1.56,1.18 -0.11,0.08 -0.19,0.13 -0.3,0.2 -0.1,0.06 -0.2,0.12 -0.31,0.19 -0.11,0.07 -0.19,0.12 -0.31,0.19l-1.64 0.83c-0.12,0.05 -0.23,0.1 -0.35,0.15 -0.74,0.29 -1.44,0.53 -2.24,0.73 -0.82,0.21 -1.71,0.37 -2.57,0.43 -0.62,0.05 -1.24,0.06 -1.87,0.06l-0.03 0 -0.01 0c-0.19,-0.01 -0.31,-0.03 -0.46,-0.03 -0.45,-0.02 -0.91,-0.07 -1.36,-0.14 -1.11,-0.15 -2.18,-0.44 -3.21,-0.79 -1.38,-0.48 -2.12,-0.93 -3.33,-1.64 -0.41,-0.24 -0.78,-0.54 -1.16,-0.82 -0.3,-0.22 -0.56,-0.48 -0.82,-0.68 -0.46,-0.35 -1.22,-1.16 -1.61,-1.62 -0.82,-0.97 -1.96,-2.6 -2.44,-3.78 -0.04,-0.11 -0.1,-0.23 -0.15,-0.35 -0.59,-1.35 -1,-2.77 -1.21,-4.26 -0.14,-1 -0.16,-1.75 -0.16,-2.74l0 -0.05 0 -0.01c0,-0.19 0.02,-0.31 0.03,-0.46 0.05,-1.76 0.56,-3.69 1.2,-5.3 0.4,-0.99 0.83,-1.7 1.37,-2.61 0.24,-0.4 0.53,-0.78 0.82,-1.15l0.68 -0.82c0.35,-0.46 1.15,-1.22 1.62,-1.62l0.68 -0.55c0.86,-0.64 2.11,-1.48 3.1,-1.88 0.11,-0.04 0.22,-0.1 0.34,-0.15l1.08 -0.43c1.6,-0.6 3.33,-0.9 5.07,-0.94z"/>
   <path class="fil1" d="M27.91 12.28c0,0.24 -0.11,0.28 -0.11,0.55 -0.19,-0.02 -0.14,-0.29 -0.42,-0.29 -0.12,0 -0.16,0.06 -0.22,0.15 -0.2,0.28 -0.65,0.19 -0.44,1.11l-0.36 -0.02c-0.35,0 -0.17,0.2 -0.46,-0.18 -0.23,-0.31 -0.1,-0.71 -0.1,-1.06l-0.08 0c-0.01,0.14 -0.05,0.2 -0.05,0.37 0,0.33 -0.04,0.41 0.07,0.72 0.04,0.11 0.04,0.14 0.04,0.28 -0.1,-0.03 -0.28,-0.12 -0.32,-0.21 -0.01,-0.02 -0.02,-0.05 -0.03,-0.08 -0.06,-0.21 -0.13,-0.46 -0.22,-0.67 -0.04,-0.08 -0.03,-0.1 -0.12,-0.12 -0.02,0.06 0.14,0.69 0.18,0.8 0.03,0.12 0.08,0.13 0.09,0.25 -0.4,-0.03 -0.58,-0.52 -0.76,-0.56 -0.16,-0.04 0.14,0.27 0.18,0.32 0.2,0.27 0.31,0.37 0.64,0.49 0.13,0.04 0.22,0.08 0.25,0.2 -0.13,0.09 -0.14,0.04 -0.35,0.01l-2.03 -0.34c-0.5,-0.07 -2.16,-0.25 -2.62,-0.22 -0.42,0.02 -0.92,0.01 -1.35,0.07 -0.14,0.02 -0.3,-0.02 -0.41,0.06 0.01,0.14 0.17,0.24 0.27,0.33l0.37 0.26c0.1,0.06 0.11,0.06 0.19,0.12 0.1,0.09 0.11,0.05 0.21,0.11l0.4 0.24c0.49,0.25 0.58,0.28 1.12,0.43 0.35,0.09 0.44,0.09 0.86,0.09 0.73,0 0.6,-0.1 1.21,-0.4 0.11,-0.06 0.2,-0.06 0.35,-0.09 0.14,-0.03 0.23,-0.05 0.36,-0.07l0.79 -0.07c0.52,-0.04 0.57,-0.11 0.65,0.16 0.03,0.09 0.08,0.16 0.09,0.26 -0.18,0 -0.35,0 -0.53,0 -0.49,0 -0.25,-0.02 -0.76,0.29 -0.11,0.06 -0.18,0.19 -0.29,0.26l-0.3 0.26c-0.16,0.16 -0.56,0.51 -0.68,0.69 -0.02,0.03 -0.02,0.04 -0.04,0.08l-0.95 1.42c-0.1,0.22 -0.72,1.35 -0.72,1.5 0,0.19 0.4,-0.03 0.49,-0.07l1.08 -0.57c0.46,-0.23 0.97,-0.56 1.36,-0.88l0.3 -0.25c0.24,-0.24 0.68,-0.61 0.84,-0.85 0.12,-0.17 0.38,-0.47 0.47,-0.64 0.11,-0.21 0.12,-0.15 0.1,-0.4 -0.02,-0.17 -0.05,-0.38 -0.06,-0.53 0.09,0.01 0.16,0.05 0.24,0.08 0.2,0.06 0.21,0.07 0.21,0.26 0,0.25 -0.11,1.63 -0.19,1.84 -0.05,0.12 -0.08,0.19 -0.13,0.3 -0.01,0.03 -0.03,0.08 -0.06,0.12 -0.35,0.5 -0.25,0.18 -0.25,1.24 0,0.65 0.28,1.17 0.55,1.71l0.42 0.72c0.05,0.08 0.06,0.09 0.11,0.17 0.08,0.13 0.31,0.39 0.44,0.43 0.12,-0.24 0.12,-1.33 0.14,-1.71 0.01,-0.29 -0.03,-0.63 0,-0.92 0.02,-0.33 -0.01,-0.53 -0.03,-0.87 -0.02,-0.4 -0.32,-2.42 -0.43,-2.8 -0.06,-0.18 -0.18,-0.29 -0.07,-0.46 0.14,0.04 0.27,0.42 0.34,0.55 0.16,0.31 1.13,0.95 0.43,0.26 -0.08,-0.08 -0.14,-0.15 -0.22,-0.23 -0.15,-0.14 -0.13,-0.08 -0.13,-0.35 0.23,0.09 -0.31,0.05 0.81,0.3 0.11,0.02 0.2,0.08 0.27,0.05 -0.02,-0.09 -0.03,-0.08 -0.1,-0.11 -0.05,-0.02 -0.1,-0.04 -0.16,-0.06 -0.15,-0.04 -0.47,-0.12 -0.61,-0.2 -0.1,-0.05 -0.19,-0.22 -0.21,-0.32 0.48,0 0.31,0.18 0.99,0.07 0.12,-0.02 0.25,-0.02 0.38,-0.02l0 -0.07c-0.26,0 -0.53,0 -0.79,0 -0.18,-0.01 -0.5,-0.23 -0.5,-0.29 0,-0.15 0.13,-0.37 0,-0.64 0.3,0.03 0.7,0.21 1,-0.26 0.1,-0.17 0.36,-0.25 0.26,-0.52 -0.02,-0.06 -0.07,-0.1 -0.12,-0.14 -0.11,-0.07 -0.13,-0.02 -0.14,-0.15 0.26,0.02 0.17,-0.11 0.55,-0.11l0.5 0.13c-0.06,-0.23 -0.49,-0.21 -0.68,-0.21 -0.2,0 -0.29,0.11 -0.48,0.11 -0.07,0 -0.2,-0.28 -0.4,-0.41 -0.12,-0.08 -0.15,-0.07 -0.15,-0.22 0,-0.22 0.25,-0.49 0.01,-0.99 -0.06,-0.12 -0.06,-0.19 -0.22,-0.2 0.01,0.12 0.01,0.05 0.07,0.15 0.03,0.05 0.04,0.07 0.07,0.13 0.04,0.09 0.1,0.21 0.1,0.33z"/>
  </g>
 </g>
</svg>
