<svg xmlns="http://www.w3.org/2000/svg" viewBox="0 0 19 19" width="19" height="19">
	<style>
		tspan { white-space:pre }
		.shp0 { fill: none } 
		.shp1 { fill: #dadada } 
	</style>
	<path id="backgroundrect" class="shp0" d="M-0.85 -0.79L1.17 -0.79L1.17 1.23L-0.85 1.23L-0.85 -0.79Z" />
	<g id="Layer">
		<g id="icomoon-ignore">
		</g>
		<path id="svg_1" fill-rule="evenodd" class="shp1" d="M16.18 6.77L18.94 9.54L16.18 12.31L16.18 16.23L12.26 16.23L9.49 18.99L6.72 16.23L2.8 16.23L2.8 12.31L0.03 9.54L2.8 6.76L2.8 2.84L6.72 2.84L9.49 0.07L12.26 2.84L16.18 2.84L16.18 6.77ZM9.49 2.79C5.76 2.79 2.74 5.81 2.74 9.54C2.74 13.27 5.76 16.29 9.49 16.29C13.22 16.29 16.24 13.27 16.24 9.54C16.24 5.81 13.22 2.79 9.49 2.79Z" />
		<path id="svg_2" fill-rule="evenodd" class="shp1" d="M9.49 3.65C12.74 3.65 15.38 6.29 15.38 9.54C15.38 12.79 12.74 15.43 9.49 15.43C6.24 15.43 3.6 12.79 3.6 9.54C3.6 6.29 6.24 3.65 9.49 3.65ZM7.76 7.35L7.76 7.35L7.76 7.35L7.76 7.35ZM7.76 7.35L7.65 7.44L5.33 9.24L5.18 9.36L5.18 9.72L7.65 11.65L7.76 11.73L7.76 10.76L6.19 9.54L7.76 8.32L7.76 7.35ZM10.53 6.79L10.58 6.59L9.78 6.59L9.77 6.63L8.49 12.29L8.45 12.5L9.24 12.5L9.25 12.46L10.53 6.79L10.53 6.79ZM13.79 9.72L13.79 9.35L11.32 7.42L11.21 7.34L11.21 8.31L12.77 9.53L11.21 10.75L11.21 11.71L11.32 11.64L13.65 9.84L13.8 9.72L13.79 9.72Z" />
	</g>
</svg>