<svg xmlns="http://www.w3.org/2000/svg" viewBox="0 0 19 19" width="19" height="19">
	<style>
		tspan { white-space:pre }
		.shp0 { fill: #ffffff } 
		.shp1 { fill: #2a0f4f } 
	</style>
	<g id="Layer">
		<path id="Layer" class="shp0" d="M12.28 16.25L16.21 16.25L16.21 12.31L18.98 9.52L16.21 6.75L16.21 2.8L12.28 2.8L9.5 0.01L6.73 2.8L2.79 2.8L2.79 6.75L0.02 9.52L2.8 12.31L2.8 16.25L6.73 16.25L9.5 19.03L12.28 16.25" />
		<path id="Layer" fill-rule="evenodd" class="shp1" d="M9.5 3.11C13.04 3.11 15.91 5.98 15.91 9.52C15.91 13.07 13.04 15.95 9.5 15.95C5.96 15.95 3.09 13.08 3.09 9.52C3.09 5.98 5.96 3.11 9.5 3.11M3.44 9.52C3.44 12.87 6.16 15.6 9.5 15.6C12.84 15.6 15.56 12.88 15.56 9.52C15.56 6.18 12.84 3.44 9.5 3.44C6.15 3.44 3.44 6.18 3.44 9.52Z" />
		<path id="Layer" fill-rule="evenodd" class="shp1" d="M16.27 9.52C16.27 11.4 15.51 13.1 14.29 14.32C13.06 15.55 11.37 16.31 9.5 16.31C7.64 16.31 5.94 15.56 4.71 14.32C3.49 13.1 2.73 11.4 2.73 9.52C2.73 7.65 3.49 5.96 4.71 4.73C5.94 3.5 7.64 2.74 9.5 2.74C11.38 2.74 13.06 3.5 14.29 4.73C15.51 5.96 16.27 7.65 16.27 9.52L15.41 9.52C15.41 7.9 14.74 6.41 13.67 5.34C12.61 4.28 11.13 3.6 9.49 3.6C7.86 3.6 6.39 4.28 5.32 5.34C4.25 6.41 3.6 7.88 3.6 9.52C3.6 11.16 4.26 12.63 5.33 13.71C6.39 14.78 7.87 15.43 9.5 15.43C11.13 15.43 12.61 14.78 13.67 13.71C14.74 12.64 15.41 11.16 15.41 9.52L16.27 9.52ZM7.76 8.31L6.19 9.52L7.75 10.75L7.75 11.73L7.65 11.64L5.33 9.83L5.18 9.71L5.18 9.34L5.33 9.22L7.65 7.41L7.76 7.33L7.76 8.31ZM11.24 7.33L11.35 7.42L13.66 9.23L13.81 9.35L13.81 9.72L13.66 9.84L11.34 11.64L11.23 11.72L11.23 10.75L12.8 9.52L11.23 8.31L11.23 7.33L11.24 7.33ZM9.8 6.56L10.59 6.56L10.55 6.77L9.25 12.46L9.25 12.5L8.46 12.5L8.5 12.28L9.8 6.59L9.8 6.56Z" />
	</g>
</svg>