<?xml version="1.0" encoding="UTF-8"?>
<!DOCTYPE svg PUBLIC "-//W3C//DTD SVG 1.1//EN" "http://www.w3.org/Graphics/SVG/1.1/DTD/svg11.dtd">
<!-- Creator: CorelDRAW X7 -->
<svg xmlns="http://www.w3.org/2000/svg" xml:space="preserve" width="50px" height="50px" version="1.1" style="shape-rendering:geometricPrecision; text-rendering:geometricPrecision; image-rendering:optimizeQuality; fill-rule:evenodd; clip-rule:evenodd"
viewBox="0 0 50 50"
 xmlns:xlink="http://www.w3.org/1999/xlink">
 <defs>
  <style type="text/css">
   <![CDATA[
    .fil0 {fill:#FEFEFE}
   ]]>
  </style>
 </defs>
 <g id="Layer_x0020_1">
  <metadata id="CorelCorpID_0Corel-Layer"/>
  <g id="_3027174850944">
   <path class="fil0" d="M16 10c0,0 -1,0 -1,0l-4 -2c0,0 -2,1 -2,2 0,0 2,1 2,1l4 4c0,0 1,2 1,2 1,0 1,-1 2,-1 0,0 0,-1 0,-1 0,0 1,0 1,0l1 -1c0,0 0,0 1,0 0,0 0,0 0,0 1,-1 1,-1 1,-1 3,0 6,0 8,1 1,0 3,1 3,2 1,0 1,0 1,0 0,0 0,0 0,1 0,0 0,0 0,0 0,0 2,-2 2,-2 0,0 5,-5 5,-5 0,-1 0,-1 -1,-1 0,-1 0,-1 -1,-1 0,0 -2,1 -2,1 0,0 -1,0 -1,1 0,0 -1,0 -1,0l-3 -1c-1,0 -1,0 -1,0 0,0 -2,-1 -2,-1 0,0 0,0 0,0 -1,-1 -1,-1 -1,-2 0,0 0,0 0,0l0 -3c0,-1 0,-1 -1,-1 0,0 -1,0 -2,0l-2 0c0,0 0,0 0,1 0,1 -1,2 -1,4 0,0 0,0 0,0 0,0 -1,1 -1,1l-5 2z"/>
   <path class="fil0" d="M36 19c0,0 1,2 1,3 0,2 0,5 0,7 -1,1 -1,1 -1,1 0,0 0,1 0,1 -1,1 -1,1 -2,2l-1 1c-1,1 -2,2 -3,2 0,0 1,1 1,1 1,2 2,4 3,6l1 2c0,0 0,0 1,0 0,0 0,0 0,0l1 -1 -1 -5c0,0 0,0 0,0l2 -2c0,0 0,0 0,0l1 -1c0,0 0,0 0,0 0,0 0,0 0,-1 0,0 0,0 0,0 1,-1 1,0 2,-1 0,0 0,0 1,0l3 1c0,0 0,0 1,0 0,-1 1,-4 1,-5l-3 -2c0,0 -1,0 -1,0l0 -1c0,0 0,0 0,0l-1 -6 1 -1c0,0 0,0 0,0l2 -2c0,0 1,0 1,0l0 0c0,-1 -1,-2 -1,-2 0,-1 0,-1 0,-1 0,0 -4,2 -5,2 -1,1 -3,2 -4,2z"/>
   <path class="fil0" d="M4 18l4 3c0,0 0,1 0,1 0,1 0,3 0,4 0,0 0,0 0,1 0,0 0,0 -1,0 0,1 0,1 0,1 0,0 0,0 0,0 -2,1 -3,2 -4,2l1 4c1,1 0,1 1,1l4 -1 1 0c0,1 1,1 1,1l2 3c0,0 0,0 1,0l0 1c1,0 0,0 0,1l-1 4c0,0 0,0 0,0 0,0 3,1 3,1l2 -4c0,-1 0,-1 1,-1 0,-1 1,-4 1,-4 0,0 -1,0 -1,-1 -1,0 -2,-1 -3,-2 0,0 0,0 0,0 -1,-1 -1,-1 -2,-2 0,-1 0,-1 0,-2 -1,-3 -1,-6 0,-9 0,0 0,0 0,-1 -2,-1 -4,-2 -6,-3 -1,0 -1,0 -2,0 0,-1 -1,-1 -1,-1l-1 3z"/>
   <path class="fil0" d="M1 25c0,-4 1,-8 3,-11l0 -1c0,0 0,-1 1,-1 0,-1 1,-2 2,-3 0,0 0,0 0,0 0,-1 1,-1 1,-1l1 -1c0,-1 2,-2 3,-2 1,-1 2,-1 3,-2 1,-1 3,-1 5,-2 1,0 3,0 5,0 4,0 8,1 11,2 1,1 1,1 2,2 1,0 2,1 3,2 0,0 0,0 0,0 0,0 0,0 0,0 1,0 1,1 1,1l1 1c0,0 0,0 0,0l1 0c0,1 0,1 0,1l1 2c0,0 0,0 0,0 1,2 2,2 2,4 1,0 1,1 1,1 0,1 0,2 1,3 0,0 0,1 0,2 1,5 -1,11 -3,15 0,0 0,0 0,0 0,1 -1,1 -1,2 0,0 -1,0 -1,1l-1 1c0,0 -1,1 -1,1l-1 1c0,0 0,0 0,0 -1,1 -3,2 -4,3 -1,1 -2,1 -3,1 -7,3 -14,3 -20,-1 -1,0 -2,-1 -3,-1 0,0 0,-1 -1,-1 0,0 0,0 0,0l-3 -3c0,0 0,0 0,0 -1,-1 -2,-2 -2,-3 -1,-2 -2,-2 -2,-4 -1,0 -1,-1 -1,-1 0,-1 0,-2 -1,-3 0,-1 0,-3 0,-5zm23 -25l2 0c1,0 2,0 3,0 2,1 5,2 8,3l1 0c1,1 1,2 2,2l1 1c0,0 0,0 0,0 1,1 2,2 2,2l1 1c1,1 2,2 3,3 0,1 1,2 1,3 1,2 1,4 2,6 0,2 0,3 0,5 0,0 0,0 0,0 0,3 -1,6 -2,9 0,0 0,0 0,0 0,1 -1,1 -1,2 0,0 0,0 0,1 -1,1 -2,1 -2,2l-1 2c-1,0 -2,1 -3,2 0,1 -1,1 -2,2 0,0 0,0 -1,0 0,0 0,0 0,0 0,0 0,1 0,1l-3 1c0,0 0,0 -1,0 -1,1 -2,1 -3,1 -1,1 -3,1 -4,1 -1,0 -2,0 -3,0 0,0 0,0 0,0 -1,0 -2,0 -3,0 -1,0 -3,-1 -4,-1 -3,-1 -4,-2 -6,-3 0,0 -1,-1 -1,-1 -1,-1 -1,-1 -2,-1 0,-1 -1,-2 -2,-3 -1,-1 -3,-4 -4,-5 0,-1 0,-1 0,-1 -1,-2 -1,-4 -2,-6 0,-2 0,-3 0,-5 0,0 0,0 0,0 0,-3 1,-6 2,-9 0,-1 1,-2 2,-4 0,0 1,-1 1,-1l1 -2c1,0 2,-1 3,-2l1 -1c1,-1 3,-2 4,-3 1,0 1,0 1,0l2 -1c2,0 5,-1 7,-1z"/>
   <path class="fil0" d="M30 19c0,0 -1,0 -1,1 0,0 0,0 0,-1 0,0 0,0 0,0 0,0 0,0 -1,0 0,0 0,1 0,1 0,0 0,0 0,0 0,0 0,1 0,1 -1,0 -1,0 -1,0 0,0 0,0 0,0 -1,0 -1,-1 -1,-1 0,0 0,0 0,0 0,0 0,-1 0,-1l0 0c0,0 0,0 0,1l0 0c0,1 0,1 0,1 0,0 0,0 0,0 0,0 0,0 0,0l0 -1c-1,0 -1,0 -1,0l1 0c0,1 0,1 0,1 -1,0 -1,-1 -1,-1 0,0 0,1 0,1 0,0 0,0 0,0 0,0 1,0 1,0 0,1 0,1 0,1 0,0 -1,0 -1,0 0,0 0,0 -1,0 -1,-1 -2,-1 -3,-1 -1,0 -2,0 -2,0l-2 0c-1,0 -1,0 -1,0 0,0 0,0 0,0 0,0 0,1 1,1 0,0 0,0 0,0 1,0 2,1 2,1 0,0 1,0 1,0 0,1 1,1 2,1 0,0 1,-1 1,-1 1,0 2,0 3,0 0,0 0,0 0,0 0,0 0,0 0,0 -1,0 -1,0 -1,1 -1,0 -1,0 -1,0 0,0 0,0 0,0 0,0 -1,1 -1,1l-1 2c0,0 0,0 0,0 0,0 0,0 0,0 0,0 0,0 0,0 0,0 0,0 -1,0 0,0 0,0 0,1 0,0 -1,2 -1,2l0 0c0,0 0,0 1,0 0,0 0,0 1,-1 0,0 1,0 1,0 0,0 0,-1 1,-1l0 0c1,0 2,-2 2,-2 0,0 0,0 0,0 1,-1 1,-1 1,-2 0,0 0,0 0,0 0,0 1,0 1,0l-1 1c0,1 0,2 0,2 0,0 0,1 0,1 0,0 0,0 0,0 0,2 0,2 0,3 0,0 0,1 1,1 0,1 0,1 0,1 0,0 0,0 0,0l0 0c0,0 1,1 1,1 0,0 0,-3 0,-4 0,0 0,-1 0,-1 0,-1 0,-2 0,-3 0,0 0,-1 -1,-2 0,0 0,0 0,0 1,0 1,1 1,1 0,0 0,0 0,0 0,0 0,0 1,0 0,1 0,1 0,1 0,-1 -1,-1 -1,-1 0,0 0,0 0,-1 0,0 0,0 0,0 0,0 0,0 0,0 1,1 1,1 2,1 0,0 -1,0 -1,0l-1 -1c0,0 0,0 0,0 0,0 0,0 0,0 0,0 1,0 1,0 0,0 1,0 1,0l0 0c0,0 -1,0 -1,0 0,0 -1,-1 -1,-1 0,0 0,0 0,-1 0,0 1,1 1,0 0,0 0,0 1,0l0 -1c0,0 0,0 0,0 0,0 0,0 0,0 0,0 0,-1 0,-1 1,0 1,1 1,1 0,-1 0,-1 -1,-1 0,0 -1,1 -1,0 0,0 0,0 0,0 0,0 0,0 0,0 0,0 0,0 0,0 0,-1 0,-1 0,-2 0,0 0,0 -1,0 0,0 0,0 1,0 0,0 0,1 0,1z"/>
  </g>
 </g>
</svg>
