<svg xmlns="http://www.w3.org/2000/svg" version="1.1" width="1024" height="1024" style=""><rect id="backgroundrect" width="100%" height="100%" x="0" y="0" fill="none" stroke="none"/>
<title/>



<g class="currentLayer" style=""><title>Layer 1</title><g id="icomoon-ignore">
</g><path d="M843.2 179.733h-194.133l-137.067-137.067-137.067 137.067h-194.133v194.133l-137.067 137.6 137.067 137.067v194.133h194.133l137.067 137.067 137.067-137.067h194.133v-194.133l137.067-137.067-137.067-137.067v-194.667zM846.4 511.467c0 184.533-149.867 334.4-334.4 334.4s-334.4-149.867-334.4-334.4 149.867-334.4 334.4-334.4 334.4 149.867 334.4 334.4z" id="svg_1" class="selected" fill="#dadada" fill-opacity="1"/><path d="M512 219.733c-161.067 0-291.733 130.667-291.733 291.733s130.667 291.733 291.733 291.733c161.067 0 291.733-130.667 291.733-291.733s-130.667-291.733-291.733-291.733zM426.133 403.2v48l-77.333 60.267 77.333 60.267v48l-5.333-3.733-122.133-95.467v-18.133l7.467-5.867 114.667-89.067 5.333-4.267zM563.733 375.467l-63.467 280.533-0.533 2.133h-39.467l2.133-10.667 63.467-280 0.533-2.133h39.467l-2.133 10.133zM725.333 520.533l-7.467 5.867-115.2 89.067-5.333 3.733v-48l77.333-60.267-77.333-60.267v-48l5.333 3.733 122.133 95.467v18.667z" id="svg_2" class="" fill="#dadada" fill-opacity="1"/></g></svg>